PathFileType	4	(X/Y/Z)	../Python\running\Running01\task.trc
DataRate	CameraRate	NumFrames	NumMarkers	Units	OrigDataRate	OrigDataStartFrame	OrigNumFrames
200.000000	200.000000	5	30	mm	200.000000	42	169
Frame#	Time	C7			RBAK			CLAV			STRN			RASI			LASI			RTH2			RTH3			RTB2			RHEE			RD5M			RTOE			LTH2			LTH3			LTB2			LTB3			LHEE			LTOE			LD5M			RPSI			RTH1			RTB1			RTB3			LPSI			PE03			T10			PE01			PE02			LTH1			LTB1			
		X1	Y1	Z1	X2	Y2	Z2	X3	Y3	Z3	X4	Y4	Z4	X5	Y5	Z5	X6	Y6	Z6	X7	Y7	Z7	X8	Y8	Z8	X9	Y9	Z9	X10	Y10	Z10	X11	Y11	Z11	X12	Y12	Z12	X13	Y13	Z13	X14	Y14	Z14	X15	Y15	Z15	X16	Y16	Z16	X17	Y17	Z17	X18	Y18	Z18	X19	Y19	Z19	X20	Y20	Z20	X21	Y21	Z21	X22	Y22	Z22	X23	Y23	Z23	X24	Y24	Z24	X25	Y25	Z25	X26	Y26	Z26	X27	Y27	Z27	X28	Y28	Z28	X29	Y29	Z29	X30	Y30	Z30	

43	0.21	-680.9003906250002	1304.156616210938	108.9134063720704	-731.0880126953127	1238.877563476563	232.7456359863282	-574.5474243164065	1183.227294921875	119.7687606811524	-560.5727539062502	990.103149414063	144.9967498779297	-622.1909790039065	807.5017089843755	270.6658020019532	-645.986755371094	817.686889648438	43.08473968505861	-561.4097290039065	474.7127990722659	306.4463500976564	-555.7601318359377	535.415954589844	316.873504638672	-705.5039062500002	318.797332763672	288.530731201172	-916.5022583007817	217.3151855468751	191.0582885742188	-833.7619018554692	117.4461898803712	289.2984924316407	-797.946655273438	94.17340850830081	250.8430480957032	-716.3533325195315	504.8270263671877	29.00436973571779	-650.5036621093752	543.1524658203127	9.510161399841312	-813.6873168945317	195.2757415771486	66.84854125976565	-765.2542724609377	202.9699096679689	69.34565734863284	-931.6670532226567	53.98096466064456	141.5188140869141	-740.8896484375002	26.38281822204591	127.2741928100587	-787.8481445312505	15.12912464141846	80.70440673828128	-811.4577026367192	883.1969604492192	239.966033935547	-606.3669433593752	538.949401855469	320.968475341797	-644.7237548828127	308.520233154297	281.412567138672	-713.8172607421877	271.3611755371095	270.3633117675782	-824.481323242188	890.1625976562505	155.1697845458985	-837.746948242188	870.225708007813	167.9446105957032	-775.6316528320317	1025.730712890625	174.4555358886719	-804.3305053710942	919.5785522460942	199.3439178466798	-832.4624633789067	861.8711547851567	217.8239746093751	-698.1409301757815	560.770446777344	9.381546020507816	-772.8144531250005	260.6296997070314	46.74319076538087	
44	0.215	-663.9638671875002	1306.80517578125	109.5134887695313	-715.6794433593752	1241.364868164063	231.4149780273439	-557.353210449219	1186.285888671875	121.7491989135743	-543.516784667969	993.1303710937505	145.9771881103516	-604.8701782226565	810.3186035156255	269.7700500488282	-629.886413574219	818.7345581054692	42.20027923583986	-537.0465087890627	481.3426513671877	305.0487670898439	-533.0571899414065	542.0701293945315	316.0130920410157	-675.5379638671877	318.2019653320314	289.0930480957032	-883.153686523438	207.6953735351564	193.6712188720704	-795.035278320313	111.9770050048829	291.3809204101564	-758.689392089844	90.19068145751956	252.6962890625001	-709.2760009765627	506.5315856933596	28.89111518859865	-642.6633300781252	542.945739746094	9.326811790466312	-812.2117309570317	197.4599456787111	67.40605163574222	-763.6171875000002	204.6065368652345	69.51274108886722	-931.1879272460942	57.69294357299808	142.1243743896485	-741.0833740234377	26.31339836120607	127.3095321655274	-788.4435424804692	15.2459831237793	81.17876434326175	-794.415405273438	885.9728393554692	239.1624908447267	-583.6865234375002	544.1267089843752	320.2751770019532	-614.7015380859377	310.6727905273439	281.2606811523439	-682.1900024414065	270.4554138183595	270.779998779297	-807.5485229492192	892.4191284179692	154.4410095214844	-820.8513183593755	872.5178222656255	167.4916076660157	-758.4707641601565	1028.050537109375	173.0468139648438	-787.2813110351567	922.143920898438	198.1928100585939	-815.4663085937505	864.7595825195317	217.4467010498048	-689.5943603515627	561.9739990234377	9.320680618286136	-770.7004394531255	262.3443298339845	47.04417419433595	
45	0.22	-647.0637817382815	1309.696411132813	110.1690673828126	-700.2707519531252	1244.073364257813	230.0594635009767	-540.1589965820315	1189.702758789063	123.8021392822266	-526.3794555664065	996.476928710938	146.9407653808594	-587.4288330078127	813.457397460938	268.8652954101564	-613.5730590820315	820.0939331054692	41.32738876342775	-513.100036621094	488.2742004394534	303.4913330078126	-510.7696228027346	548.9594726562502	315.0611267089845	-645.711120605469	317.8056945800782	289.5738830566407	-849.2915039062505	198.0873413085939	196.2246704101564	-755.9777832031252	106.7467041015626	293.3239746093751	-719.1590576171877	86.51387023925784	254.456756591797	-702.1077270507815	508.7591552734377	28.83963012695314	-634.748229980469	543.2386474609377	9.238669395446781	-810.6472167968755	200.2180480957032	67.98210906982425	-761.913024902344	206.8327636718751	69.69509887695315	-930.4478149414067	61.92364501953128	142.6513977050782	-741.186218261719	26.26412582397462	127.3557281494141	-789.0112915039067	15.35981941223145	81.65555572509768	-777.3106079101567	888.9407348632817	238.2725067138673	-561.3675537109377	549.5457763671877	319.4777221679689	-584.874450683594	313.0762329101564	281.078582763672	-650.6130371093752	269.7799377441407	271.2185363769532	-790.4841918945317	894.8427124023442	153.6123657226563	-803.8247070312505	874.9479370117192	166.9731750488282	-741.2443847656252	1030.593383789063	171.5184173583985	-770.141723632813	924.8943481445317	196.9325256347657	-798.3556518554692	867.842163085938	217.0067138671876	-680.9172363281252	563.6483154296877	9.346126556396488	-768.5287475585942	264.6510314941407	47.40427398681642	
46	0.225	-630.194519042969	1312.809936523438	110.8741149902344	-684.8518066406252	1246.983642578125	228.684295654297	-522.9658203125002	1193.449340820313	125.9195022583008	-509.1526184082034	1000.113037109375	147.8891601562501	-569.8674926757815	816.8884277343755	267.9487609863282	-597.0393066406252	821.7810668945317	40.46904373168947	-489.5753479003909	495.4195251464846	301.791717529297	-488.8886718750002	556.0012207031252	314.0233764648439	-616.0239868164065	317.5879516601564	289.9817504882814	-814.9176635742192	188.5746307373047	198.7197113037111	-716.6258544921877	101.7516098022462	295.096893310547	-679.3986816406252	83.13152313232425	256.0606384277345	-694.785583496094	511.512634277344	28.85175132751466	-626.666442871094	544.0468750000002	9.252861976623539	-808.957641601563	203.573699951172	68.56279754638675	-760.0977172851565	209.6673583984376	69.87144470214847	-929.365112304688	66.68376159667972	143.0714416503907	-741.1914062500002	26.2414894104004	127.4113540649415	-789.5331420898442	15.47449684143067	82.11204528808597	-760.1306762695315	892.0979614257817	237.3131103515626	-539.407897949219	555.1394042968752	318.5760192871095	-555.255065917969	315.696746826172	280.8804016113282	-619.091491699219	269.3330993652345	271.688934326172	-773.285766601563	897.4362792968755	152.7007141113282	-786.6659545898442	877.5205688476567	166.4060058593751	-723.9532470703127	1033.34375	169.8791198730469	-752.8944091796877	927.8237304687505	195.5831604003907	-781.1215820312505	871.1124877929692	216.5176086425782	-672.0502929687502	565.797058105469	9.459394454956058	-766.267761230469	267.5754699707032	47.81464767456056	
47	0.23	-613.350036621094	1316.123168945313	111.623146057129	-669.412292480469	1250.073974609375	227.2957153320314	-505.7754211425784	1197.494873046875	128.0922088623047	-491.8303222656252	1004.009033203125	148.8244781494141	-552.1887207031252	820.5791015625005	267.0172424316407	-580.2827758789065	823.8019409179692	39.62652969360353	-466.4745788574221	502.6849365234377	299.974578857422	-467.3935241699221	563.1120605468752	312.9004516601564	-586.476501464844	317.5230102539064	290.324920654297	-780.0388183593755	179.2363891601563	201.1490936279298	-677.018737792969	96.9793319702149	296.6716918945314	-639.4544067382815	80.01857757568362	257.444061279297	-687.2498779296877	514.785583496094	28.92975425720216	-618.3320922851565	545.3708496093752	9.380079269409183	-807.0998535156255	207.5345153808595	69.13922119140628	-758.1216430664065	213.1178131103517	70.02209472656253	-927.8478393554692	71.97251129150393	143.3652343750001	-741.1074829101565	26.24193191528322	127.4773788452149	-789.9906616210942	15.60461330413819	82.52897644042972	-742.8610839843752	895.4385375976567	236.2986602783204	-517.7950439453127	560.8453369140627	317.5729370117189	-525.8562011718752	318.4982910156251	280.6753540039064	-587.6292724609377	269.1078186035157	272.1932067871095	-755.9517211914065	900.2011718750005	151.7217102050782	-769.375610351563	880.240356445313	165.8044433593751	-706.5984497070315	1036.283325195313	168.1401672363282	-735.5223388671877	930.9235229492192	194.1630706787111	-763.7564086914065	874.5632324218755	215.9905700683595	-662.9387817382815	568.4146118164065	9.660911560058597	-763.8830566406252	271.1318359375001	48.26988601684573	
